<?xml version="1.0" encoding="iso-8859-1"?>
<!-- Uploaded to: SVG Repo, www.svgrepo.com, Generator: SVG Repo Mixer Tools -->
<!DOCTYPE svg PUBLIC "-//W3C//DTD SVG 1.1//EN" "http://www.w3.org/Graphics/SVG/1.1/DTD/svg11.dtd">
<svg fill="#000000" version="1.1" id="Capa_1" xmlns="http://www.w3.org/2000/svg" xmlns:xlink="http://www.w3.org/1999/xlink" 
	 width="800px" height="800px" viewBox="0 0 338.009 338.009"
	 xml:space="preserve">
<g>
	<g>
		<path d="M91.227,169.871c10.205,0,19.515-3.819,26.646-10.072l49.917,49.915v125.607c0,1.48,1.205,2.688,2.688,2.688
			s2.694-1.207,2.694-2.688v-72.641c0.054-0.053,0.118-0.073,0.188-0.12l46.787-46.789c7.118,6.252,16.44,10.079,26.634,10.079
			c22.342,0,40.515-18.179,40.515-40.525c0-22.339-18.173-40.518-40.515-40.518c-22.331,0-40.504,18.179-40.504,40.518
			c0,10.199,3.822,19.517,10.068,26.646l-43.173,43.178V80.898c21.094-1.391,37.828-18.937,37.828-40.378
			c0-22.341-18.173-40.52-40.522-40.52c-22.339,0-40.52,18.173-40.52,40.52c0,21.431,16.745,38.988,37.832,40.378v121.225
			l-46.116-46.118c6.252-7.128,10.074-16.45,10.074-26.646c0-22.336-18.179-40.51-40.52-40.51c-22.339,0-40.512,18.173-40.512,40.51
			C50.715,151.693,68.893,169.871,91.227,169.871z"/>
	</g>
</g>
</svg>