<?xml version="1.0" encoding="iso-8859-1"?>
<!-- Uploaded to: SVG Repo, www.svgrepo.com, Generator: SVG Repo Mixer Tools -->
<!DOCTYPE svg PUBLIC "-//W3C//DTD SVG 1.1//EN" "http://www.w3.org/Graphics/SVG/1.1/DTD/svg11.dtd">
<svg fill="#000000" height="800px" width="800px" version="1.1" id="Capa_1" xmlns="http://www.w3.org/2000/svg" xmlns:xlink="http://www.w3.org/1999/xlink" 
	 viewBox="0 0 455.978 455.978" xml:space="preserve">
<path d="M376.474,206.675C372.643,133.88,335.217,77.737,271.09,48.589l-0.12-0.054c-0.884-0.402-1.79-0.808-2.712-1.222
	C252.195,40.108,233.989,31.942,233.989,6c0-3.313-2.687-6-6-6c-3.314,0-6,2.687-6,6c0,25.942-18.206,34.108-34.269,41.313
	c-0.922,0.414-1.828,0.82-2.712,1.222l-0.119,0.054c-64.127,29.147-101.554,85.29-105.385,158.085
	c-1.765,33.527,4.862,66.016,19.695,96.564c11.81,24.322,28.812,47.441,50.533,68.717c30.902,30.268,62.076,47.869,72.257,53.206
	v24.816c0,3.313,2.687,6,6,6s6-2.687,6-6v-24.816c10.181-5.336,41.355-22.937,72.257-53.206
	c21.722-21.276,38.723-44.396,50.532-68.717C371.611,272.691,378.238,240.202,376.474,206.675z M353.98,278.957L231.989,400.947
	v-28.266l131.136-131.136C361.422,254.256,358.361,266.745,353.98,278.957z M100.201,158.099l123.788,123.788v9.966
	c0,0,0,0.002,0,0.002v18.308L94.565,180.738C95.994,172.92,97.874,165.371,100.201,158.099z M111.996,130.313l111.994,111.994
	v28.266L103.124,149.708C105.675,142.986,108.636,136.522,111.996,130.313z M127.826,106.573l96.163,96.154v28.266L116.126,123.13
	C119.654,117.366,123.559,111.848,127.826,106.573z M170.213,69.782l53.776,53.776v28.266l-70.492-70.493
	C159.395,76.708,165.086,72.889,170.213,69.782z M267.465,60.126c3.947,1.808,10.547,4.944,18.493,9.774l-53.968,53.967V95.602
	L267.465,60.126z M308.851,86.585l-76.862,76.862v-28.266l60.863-60.862C297.937,77.753,303.361,81.817,308.851,86.585z
	 M344.091,130.516L231.989,242.617v-28.266l101.208-101.199C337.208,118.691,340.838,124.482,344.091,130.516z M355.852,158.335
	L231.989,282.197v-28.266l115.899-115.899C350.959,144.537,353.614,151.307,355.852,158.335z M364.489,207.306
	c0.384,7.288,0.326,14.521-0.133,21.695L231.989,361.367v-28.266L364.061,201.03C364.229,203.107,364.378,205.195,364.489,207.306z
	 M362.991,190.786L231.989,321.788v-28.276l126.409-126.409C360.392,174.717,361.926,182.613,362.991,190.786z M223.989,321.478
	v28.266L91.248,217.001c0.003-3.222,0.07-6.452,0.24-9.696c0.301-5.721,0.816-11.318,1.537-16.793L223.989,321.478z M91.603,228.671
	l132.386,132.386v28.266L96.868,262.202C94.068,251.208,92.309,240.018,91.603,228.671z M328.292,106.745l-96.303,96.294v-28.277
	l82.774-82.774c1.531,1.47,3.06,2.991,4.58,4.576C322.49,99.846,325.468,103.244,328.292,106.745z M259.677,56.601l-27.687,27.687
	V37.035C239.682,46.766,250.498,52.393,259.677,56.601z M223.989,37.035v35.629l-19.885-19.885
	C211.169,49.015,218.402,44.103,223.989,37.035z M189.855,59.514l0.119-0.054c0.867-0.394,1.754-0.792,2.658-1.198
	c1.249-0.56,2.552-1.147,3.883-1.759l27.474,27.474v28.266l-46.586-46.586C182.886,62.684,187.26,60.693,189.855,59.514z
	 M147.294,86.442l76.695,76.695v28.277l-90.958-90.949c1.18-1.315,2.376-2.62,3.605-3.902
	C140.168,92.879,143.745,89.516,147.294,86.442z M109.994,297.998c-3.117-6.419-5.826-12.934-8.17-19.525l122.165,122.165v11.949
	c-12.17-6.74-39.347-23.234-65.86-49.203C137.395,343.075,121.2,321.076,109.994,297.998z M298.106,363.131
	c-26.54,26.061-53.894,42.673-66.117,49.45l113.72-114.04C334.562,321.324,318.555,343.052,298.106,363.131z"/>
</svg>