<?xml version="1.0" encoding="iso-8859-1"?>
<!-- Uploaded to: SVG Repo, www.svgrepo.com, Generator: SVG Repo Mixer Tools -->
<svg height="800px" width="800px" version="1.1" id="Layer_1" xmlns="http://www.w3.org/2000/svg" xmlns:xlink="http://www.w3.org/1999/xlink" 
	 viewBox="0 0 504.8 504.8" xml:space="preserve">
<path style="fill:#02243E;" d="M252.4,504.8c-2.4,0-4-1.6-4-4V41.6c0-2.4,1.6-4,4-4s4,1.6,4,4v459.2
	C256.4,503.2,254.8,504.8,252.4,504.8z"/>
<circle style="fill:#ED7C8A;" cx="252.4" cy="20.8" r="20.8"/>
<path style="fill:#DD586F;" d="M252.4,0c11.2,0,20.8,9.6,20.8,20.8s-9.6,20.8-20.8,20.8"/>
<g>
	
		<ellipse transform="matrix(-0.5853 -0.8108 0.8108 -0.5853 380.8939 210.4104)" style="fill:#F4A6B4;" cx="244.254" cy="7.8" rx="3.2" ry="8"/>
	<path style="fill:#F4A6B4;" d="M238,16c0,0.8-0.8,1.6-1.6,1.6s-1.6-0.8-1.6-1.6c0-0.8,0.8-1.6,1.6-1.6S238,15.2,238,16z"/>
</g>
<path style="fill:#02243E;" d="M251.6,182.4c-1.6,0-3.2-0.8-3.2-2.4L186,63.2c-0.8-1.6,0-4,1.6-5.6c1.6-0.8,4,0,5.6,1.6l62.4,117.6
	c0.8,1.6,0,4-1.6,5.6C253.2,182.4,252.4,182.4,251.6,182.4z"/>
<circle style="fill:#ED7C8A;" cx="180.4" cy="43.2" r="20.8"/>
<path style="fill:#DD586F;" d="M170,24.8c10.4-5.6,22.4-1.6,28,8.8s1.6,22.4-8.8,28"/>
<g>
	<path style="fill:#F4A6B4;" d="M170,28.8c1.6,0.8,1.6,4.8,0,8c-1.6,4-4.8,6.4-6.4,5.6c-1.6-0.8-1.6-4.8,0.8-8
		C165.2,30.4,168.4,28,170,28.8z"/>
	<circle style="fill:#F4A6B4;" cx="164.4" cy="46.4" r="1.6"/>
</g>
<path style="fill:#02243E;" d="M251.6,184c-0.8,0-1.6,0-2.4-0.8l-105.6-72c-1.6-1.6-2.4-4-0.8-5.6c1.6-1.6,4-2.4,5.6-0.8l105.6,72
	c1.6,1.6,2.4,4,0.8,5.6C254,183.2,252.4,184,251.6,184z"/>
<circle style="fill:#ED7C8A;" cx="129.2" cy="96" r="20"/>
<path style="fill:#DD586F;" d="M113.2,84.8c6.4-8.8,18.4-11.2,28-4.8c8.8,6.4,11.2,18.4,4.8,28"/>
<g>
	<path style="fill:#F4A6B4;" d="M114.8,88.8c1.6,0,3.2,3.2,3.2,7.2s-1.6,7.2-3.2,7.2s-3.2-3.2-3.2-7.2
		C111.6,92,113.2,88.8,114.8,88.8z"/>
	<path style="fill:#F4A6B4;" d="M118,104.8c0.8,0.8,0.8,1.6,0.8,2.4c-0.8,0.8-1.6,0.8-2.4,0.8c-0.8-0.8-0.8-1.6-0.8-2.4
		C116.4,104.8,117.2,104,118,104.8z"/>
</g>
<path style="fill:#02243E;" d="M248.4,184.8L248.4,184.8l-119.2-11.2c-2.4,0-4-2.4-3.2-4c0-2.4,2.4-4,4-3.2l118.4,11.2
	c2.4,0,4,2.4,3.2,4C252.4,183.2,250,184.8,248.4,184.8z"/>
<path style="fill:#ED7C8A;" d="M113.2,148.8c10.4,0.8,17.6,10.4,16.8,20c-0.8,10.4-10.4,17.6-20,16.8c-10.4-0.8-17.6-10.4-16.8-20
	C93.2,155.2,102.8,148,113.2,148.8z"/>
<path style="fill:#DD586F;" d="M92.4,165.6c0.8-10.4,10.4-17.6,20-16.8c10.4,0.8,17.6,10.4,16.8,20"/>
<g>
	<path style="fill:#F4A6B4;" d="M95.6,168c1.6-0.8,4,0.8,6.4,4.8c1.6,3.2,2.4,6.4,0.8,7.2s-4-0.8-6.4-4.8
		C94.8,172,94,168.8,95.6,168z"/>
	<path style="fill:#F4A6B4;" d="M106,180c0.8,0,1.6,0.8,1.6,1.6s-0.8,1.6-1.6,1.6c-0.8,0-1.6-0.8-1.6-1.6
		C104.4,180,105.2,180,106,180z"/>
</g>
<path style="fill:#02243E;" d="M253.2,182.4c-0.8,0-1.6,0-1.6-0.8c-1.6-0.8-2.4-3.2-1.6-5.6l61.6-117.6c0.8-1.6,3.2-2.4,5.6-1.6
	c1.6,0.8,2.4,3.2,1.6,5.6L257.2,180C255.6,181.6,254.8,182.4,253.2,182.4z"/>
<circle style="fill:#ED7C8A;" cx="324.4" cy="43.2" r="20.8"/>
<path style="fill:#DD586F;" d="M334.8,24.8c-10.4-5.6-22.4-1.6-28,8.8s-1.6,22.4,8.8,28"/>
<g>
	
		<ellipse transform="matrix(-0.8959 0.4443 -0.4443 -0.8959 657.2573 -82.5098)" style="fill:#F4A6B4;" cx="338.297" cy="35.758" rx="3.2" ry="8"/>
	<circle style="fill:#F4A6B4;" cx="340.4" cy="46.4" r="1.6"/>
</g>
<path style="fill:#02243E;" d="M253.2,184c-1.6,0-2.4-0.8-3.2-1.6c-1.6-1.6-0.8-4,0.8-5.6l105.6-72c1.6-1.6,4-0.8,5.6,0.8
	c1.6,1.6,0.8,4-0.8,5.6l-105.6,72C254.8,183.2,254,184,253.2,184z"/>
<circle style="fill:#ED7C8A;" cx="375.6" cy="96" r="20"/>
<path style="fill:#DD586F;" d="M391.6,84.8c-6.4-8.8-18.4-11.2-28-4.8c-8.8,6.4-11.2,18.4-4.8,28"/>
<g>
	<path style="fill:#F4A6B4;" d="M390,88.8c-1.6,0-3.2,3.2-3.2,7.2s1.6,7.2,3.2,7.2s3.2-3.2,3.2-7.2C393.2,92,391.6,88.8,390,88.8z"
		/>
	<path style="fill:#F4A6B4;" d="M386.8,104.8c-0.8,0.8-0.8,1.6-0.8,2.4c0.8,0.8,1.6,0.8,2.4,0.8c0.8-0.8,0.8-1.6,0.8-2.4
		C388.4,104.8,387.6,104,386.8,104.8z"/>
</g>
<path style="fill:#02243E;" d="M256.4,184.8c-2.4,0-4-1.6-4-4s1.6-4,3.2-4L374,165.6c2.4,0,4,1.6,4,3.2c0,2.4-1.6,4-3.2,4
	L256.4,184.8C257.2,184.8,256.4,184.8,256.4,184.8z"/>
<path style="fill:#ED7C8A;" d="M391.6,148.8c-10.4,0.8-17.6,10.4-16.8,20c0.8,10.4,10.4,17.6,20,16.8c10.4-0.8,17.6-10.4,16.8-20
	C411.6,155.2,402,148,391.6,148.8z"/>
<path style="fill:#DD586F;" d="M412.4,165.6c-0.8-10.4-10.4-17.6-20-16.8c-10.4,0.8-17.6,10.4-16.8,20"/>
<g>
	<path style="fill:#F4A6B4;" d="M409.2,168c-1.6-0.8-4,0.8-6.4,4.8c-1.6,3.2-2.4,6.4-0.8,7.2s4-0.8,6.4-4.8
		C410,172,410.8,168.8,409.2,168z"/>
	<path style="fill:#F4A6B4;" d="M398.8,180c-0.8,0-1.6,0.8-1.6,1.6s0.8,1.6,1.6,1.6c0.8,0,1.6-0.8,1.6-1.6
		C400.4,180,399.6,180,398.8,180z"/>
</g>
</svg>