<?xml version="1.0" encoding="iso-8859-1"?>
<!-- Uploaded to: SVG Repo, www.svgrepo.com, Generator: SVG Repo Mixer Tools -->
<svg fill="#000000" height="800px" width="800px" version="1.1" id="Layer_1" xmlns="http://www.w3.org/2000/svg" xmlns:xlink="http://www.w3.org/1999/xlink" 
	 viewBox="0 0 512 512" xml:space="preserve">
<g>
	<g>
		<path d="M501.534,29.706c-8.088-3.243-200.086-78.198-345.052,23.191C49.026,128.044-2.025,279.225,4.726,502.242
			c0.098,3.101,1.621,5.99,4.127,7.822c1.739,1.273,3.823,1.936,5.935,1.936c0.924,0,1.857-0.128,2.761-0.388
			c2.928-0.835,72.483-20.961,150.607-65.064C272.46,387.67,341.051,313.924,366.513,233.275
			C423.027,54.332,496.542,49.178,497.938,49.114c4.766-0.064,8.844-3.469,9.748-8.161C508.59,36.216,506.015,31.499,501.534,29.706
			z M337.838,20.695c39.664,0,76.021,5.908,103.659,12.27c-63.079,10.122-118.854,35.931-167.62,70.433l21.916-80.366
			C310.055,21.401,324.144,20.695,337.838,20.695z M154.409,79.297c0-0.198,0.582-0.382,0.57-0.577
			c4.022-3.197,8.729-6.316,12.932-9.26c33.407-23.386,69.965-36.596,106.143-43.211l-27.115,97.114
			c-34.463,27.96-64.858,60.03-92.53,93.314V79.297z M134.284,96.479v143.823c0,0.735,0.089,1.446,0.238,2.136
			c-18.988,25.673-35.458,51.611-50.552,76.536V169.862c0-1.608-0.413-3.107-1.081-4.455
			C97.396,138.846,116.674,115.873,134.284,96.479z M63.844,206.123v148.558c-15.094,32.28-30.81,61.483-40.541,84.337
			C25.325,346.295,41.203,268.533,63.844,206.123z M26.996,487.078c6.186-17.136,23.305-60.994,52.019-116.339h163.981
			C162.907,438.662,64.08,474.523,26.996,487.078z M265.706,350.613H89.898c17.826-32.704,39.389-65.408,64.799-100.627h183.962
			C322.031,287.721,296,322.94,265.706,350.613z M347.331,226.834c-0.32,1.017-0.678,3.027-1.012,3.027H170.299
			c25.975-32.704,55.549-62.892,88.828-90.565h122.969C370.166,164.452,358.381,191.84,347.331,226.834z M392.935,119.17H285.647
			c47.031-32.704,100.728-57.764,161.338-67.07C430.626,65.44,411.83,86.466,392.935,119.17z"/>
	</g>
</g>
</svg>