<?xml version="1.0" encoding="iso-8859-1"?>
<!-- Uploaded to: SVG Repo, www.svgrepo.com, Generator: SVG Repo Mixer Tools -->
<svg height="800px" width="800px" version="1.1" id="Layer_1" xmlns="http://www.w3.org/2000/svg" xmlns:xlink="http://www.w3.org/1999/xlink" 
	 viewBox="0 0 479.987 479.987" xml:space="preserve">
<g transform="translate(0 -1020.36)" shape-rendering="auto" image-rendering="auto" color-rendering="auto" color-interpolation="sRGB">
	<path style="fill:#464C63;" d="M311.91,1196.347L311.91,1196.347c-14.258,0.176-28.302,3.088-41.469,7.469
		c-24.782,8.246-65.563,32.686-65.563,32.686c-3.799,2.258-5.049,7.166-2.792,10.965c0.873,1.469,2.193,2.621,3.768,3.285
		c0,0,13.277,5.596,30.062,11.438c16.787,5.842,36.845,12.07,52.469,13.188c16.374,1.168,35.315,1.057,51.531-8.063
		c11.555-6.5,21.389-19.045,29.376-30.125c7.987-11.082,13.624-20.844,13.624-20.844c2.212-3.824,0.905-8.719-2.92-10.932
		c-1.313-0.76-2.814-1.129-4.33-1.068c0,0-10.957,0.352-15,0c-14.376-1.199-30.242-8.156-48.718-8.031L311.91,1196.347z"/>
	<path style="fill:#FFB900;" d="M312.102,1212.379c13.957-0.16,29.302,6.475,47.25,7.969h1.875c-2.051,3.174-2.029,3.51-4.906,7.5
		c-7.472,10.365-17.656,21.822-24.251,25.531c-11.424,6.428-27.27,7.158-42.531,6.063c-12.139-0.863-32.078-6.652-48.342-12.314
		c-6.918-2.408-7.422-2.799-12.376-4.719c12.814-7.23,31.382-18.314,46.688-23.406
		C287.433,1215.033,299.916,1212.529,312.102,1212.379z"/>
	<g>
		<path style="fill:#464C63;" d="M236.598,1294.877c-4.322-0.004-8.776,0.4-13.314,1.408c-12.651,2.811-22.376,10.34-31,16.219
			c-21.755,14.826-57.062,48.748-57.062,48.748c-1.589,1.504-2.492,3.596-2.499,5.783c0.003,3.416,2.174,6.455,5.406,7.563
			c0,0,10.336,3.6,23.342,7.031c13.008,3.43,28.392,6.922,40.875,6.188c17.774-1.057,35.224-7.324,49.97-16.719
			c15.426-9.813,28.344-23.748,37.469-39.377c2.827-4.844,4.312-10.436,5.562-15.313c1.248-4.877,2-8.906,2-8.906
			c0.798-4.346-2.079-8.516-6.425-9.314c-0.591-0.107-1.192-0.148-1.793-0.123c0,0-12.061,0.512-17.406,0.432
			c-10.28-0.16-22.163-3.609-35.125-3.625L236.598,1294.877z M236.438,1311.127c10.227,0.287,21.994,3.201,35.03,3.377
			c2.757,0,4.357-0.16,7.688-0.191c-1.088,3.744-2.408,7.955-3.219,9.344c-7.88,13.498-19.222,25.65-32.25,33.938
			c-12.613,8.035-27.709,13.385-42.312,14.252c-8.304,0.496-23.474-2.426-35.845-5.688c-4.733-1.248-4.918-1.473-8.499-2.563
			c9.757-9.084,29.054-27.543,44.218-37.875c9-6.137,17.298-11.996,25.469-13.811
			C229.769,1311.238,233.028,1311.029,236.438,1311.127L236.438,1311.127z"/>
		<path style="fill:#464C63;" d="M151.471,1132.379c-1.622,0.117-3.17,0.729-4.437,1.748c0,0-3.189,2.545-6.906,5.938
			c-3.718,3.395-7.958,7.322-10.907,12.094c-9.514,15.395-15.726,33.369-17.157,51.594c-1.36,17.428,1.264,35.748,8.688,51.938
			c5.213,11.367,15.52,23.313,24.656,33.188c9.138,9.873,17.189,17.344,17.189,17.344c3.249,2.994,8.311,2.789,11.305-0.461
			c0.855-0.928,1.478-2.043,1.819-3.258c0,0,13.376-47.08,16.25-73.252c1.136-10.373,3.208-22.541-0.256-35.031
			c-4.963-17.92-18.093-29.672-24.688-41.688c-2.573-4.686-7.781-15.594-7.781-15.594c-1.291-2.715-3.995-4.479-7-4.563
			c-0.261-0.014-0.523-0.014-0.784,0L151.471,1132.379z M149.566,1153.347c1.472,2.986,2.11,4.457,3.437,6.875
			c8.366,15.24,19.976,26.234,23.314,38.281c2.234,8.066,0.944,18.17-0.256,29c-2.005,18.254-9.221,43.98-12.656,56.844
			c-2.648-2.65-2.92-2.713-6.251-6.313c-8.688-9.391-18.376-21.438-21.843-29c-6.096-13.293-8.482-29.119-7.312-44.031
			c1.216-15.398,6.627-31.111,14.843-44.406c0.848-1.359,3.923-4.539,6.718-7.25H149.566z"/>
		<path style="fill:#464C63;" d="M280.191,1028.379c-0.272-0.014-0.544-0.014-0.816,0c-1.19,0.096-2.344,0.456-3.376,1.056
			c0,0-9.784,5.608-20.874,13.594c-11.091,7.985-23.622,17.839-30.094,29.438c-10.52,18.854-10.754,41.152-9,60.594
			c1.296,14.428,7.555,32.473,13.374,47.594c5.819,15.119,11.344,27.063,11.344,27.063c1.865,4.006,6.625,5.74,10.63,3.875
			c1.455-0.676,2.672-1.775,3.495-3.154c0,0,24.64-40.686,32.75-65.625c5.216-16.039,8.654-33.223,8.374-50.594
			c-0.256-16.037-6.89-29.133-8.03-40.656c-0.368-3.736,0-14.813,0-14.813c0.224-4.413-3.171-8.173-7.584-8.396
			c-0.076-0.004-0.152-0.007-0.229-0.009L280.191,1028.379z"/>
	</g>
	<path style="fill:#FFB900;" d="M272.035,1051.159c0,0.88,0,1.216,0,2.03c1.536,15.535,7.789,28.166,7.97,39.314
		c0.24,15.066-2.781,30.6-7.595,45.406c-5.038,15.498-16.621,34.795-23.749,47.342c-1.819-4.277-2.093-4.545-4.314-10.313
		c-5.61-14.578-11.403-32.518-12.374-43.281c-1.634-18.109-0.816-37.303,7.032-51.375c3.674-6.586,15.131-16.754,25.499-24.219
		C268.503,1053.184,268.854,1053.208,272.035,1051.159L272.035,1051.159z"/>
	<g>
		<path style="fill:#464C63;" d="M432.628,1091.783c-6.254,0-12.28,0.256-17.219,0.592c-17.632,1.248-39.894-2.096-59.374,9.031
			c-9.97,5.695-17.784,16.279-24.187,25.594c-6.405,9.316-10.875,17.531-10.875,17.531c-2.02,3.703-0.816,8.34,2.75,10.594
			c30.998,19.488,60.798,24.887,95.656,8.469c12.523-5.898,25.744-20.102,37.594-33.217c11.848-13.119,21.282-25.064,21.282-25.064
			c2.746-3.461,2.166-8.494-1.296-11.24c-1.343-1.064-2.992-1.672-4.704-1.729l0,0c0,0-20.861-0.783-39.626-0.592L432.628,1091.783z
			 M435.566,1107.939c6.496,0,12.997,0.287,19.125,0.432c-3.642,4.375-4.262,5.41-9.594,11.313
			c-11.435,12.66-26.218,26.463-32.531,29.438c-27.915,13.148-48.163,9.332-72.843-4.5c1.776-2.998,2.189-3.988,5.312-8.531
			c5.886-8.564,14.083-18.01,18.938-20.783c13.261-7.574,32.586-5.518,52.563-6.936
			C422.58,1107.939,429.07,1107.859,435.566,1107.939z"/>
		<path style="fill:#464C63;" d="M71.503,1284.347c-1.775,0.127-3.457,0.842-4.781,2.031c-18.805,16.773-30.36,34.588-34.563,60.686
			c-2.808,17.436-1.552,37.859,9.282,53.781c4.805,7.061,11.565,14.965,19.781,20.846c8.218,5.879,18.878,10.121,29.594,6.156
			c10.824-4.006,18.046-13.43,22.72-23.688c4.674-10.26,6.933-21.742,6.499-32.156c-1.136-27.262-15.742-47.803-33.938-68.875
			c-0.656-0.768-2.8-4.535-4.187-7.686c-1.392-3.15-2.312-5.783-2.312-5.783c-1.108-3.109-4.013-5.221-7.314-5.313
			c-0.261-0.014-0.523-0.014-0.784,0H71.503z"/>
	</g>
	<path style="fill:#FFB900;" d="M70.063,1306.754c1.184,2.318,2.05,4.656,3.938,6.844c17.61,20.395,29.117,37.146,30.03,59.094
		c0.32,7.455-1.504,17.035-5.062,24.844c-3.557,7.809-8.696,13.467-13.686,15.313c-3.866,1.424-8.835,0.16-14.781-4.154
		c-5.947-4.256-11.901-11.051-15.845-16.844c-7.414-10.891-9.069-27.633-6.718-42.219c3.011-18.697,10.608-30.727,22.125-42.875
		V1306.754z"/>
	<path style="fill:#464C63;" d="M327.798,1140.306c-1.249,0.049-2.469,0.387-3.563,0.992c0,0-27.234,14.471-40.968,24.625
		c-29.077,21.498-57.685,45.053-81.376,73.281c-17.038,20.301-28.21,43.799-40.75,65.063c-14.355,24.344-24.67,49.959-39.656,71.5
		c-13.837,19.889-29.018,38.875-46.718,54.563c-19.947,17.678-70.656,47.031-70.656,47.031c-3.862,2.152-5.248,7.029-3.095,10.893
		c2.153,3.861,7.029,5.248,10.892,3.094c0.047-0.025,0.094-0.053,0.141-0.08c0,0,50.091-28.395,73.312-48.969
		c19.093-16.92,35.011-36.939,49.25-57.406c16.368-23.527,26.781-49.553,40.314-72.5c13.013-22.066,23.947-44.674,39.25-62.906
		c22.429-26.725,49.984-49.535,78.594-70.686c11.266-8.33,39.032-23.377,39.032-23.377c3.939-2.002,5.511-6.818,3.509-10.758
		c-1.426-2.805-4.365-4.516-7.509-4.367L327.798,1140.306z"/>
</g>
</svg>