<?xml version="1.0" encoding="iso-8859-1"?>
<!-- Uploaded to: SVG Repo, www.svgrepo.com, Generator: SVG Repo Mixer Tools -->
<!DOCTYPE svg PUBLIC "-//W3C//DTD SVG 1.1//EN" "http://www.w3.org/Graphics/SVG/1.1/DTD/svg11.dtd">
<svg fill="#000000" height="800px" width="800px" version="1.1" id="Capa_1" xmlns="http://www.w3.org/2000/svg" xmlns:xlink="http://www.w3.org/1999/xlink" 
	 viewBox="0 0 482 482" xml:space="preserve">
<path d="M338.281,245.078c-2.644-1.995-6.406-1.47-8.403,1.176l-81.215,107.635v-54.43l74.256-103.74
	c1.929-2.694,1.308-6.442-1.387-8.371c-2.695-1.929-6.443-1.309-8.371,1.387l-20.968,29.293l0.915-3.805
	c0.517-2.148-0.806-4.308-2.954-4.824c-2.143-0.516-4.308,0.806-4.824,2.954l-5.527,22.986l-31.14,43.504v-34.333l24.288-53.781
	l20.923-19.287c1.625-1.497,1.728-4.028,0.23-5.652c-1.497-1.624-4.027-1.728-5.652-0.23l-7.083,6.53l13.319-29.491
	c1.364-3.02,0.021-6.574-2.999-7.938c-3.022-1.364-6.574-0.021-7.938,2.999l-35.088,77.695v-52.987l21.725-53.226
	c1.252-3.068-0.22-6.57-3.288-7.823c-3.067-1.25-6.57,0.22-7.823,3.288l-10.614,26.005v-18.954l13.304-38.963
	c0.713-2.09-0.402-4.364-2.493-5.078c-2.089-0.712-4.364,0.403-5.078,2.493l-5.733,16.79V30.814l3.979-5.968
	c1.226-1.838,0.729-4.321-1.109-5.547c-0.879-0.586-1.904-0.768-2.87-0.608V6c0-3.313-2.687-6-6-6s-6,2.687-6,6v40.023l-3.725-7.449
	c-0.988-1.976-3.391-2.776-5.367-1.789c-1.976,0.988-2.776,3.391-1.789,5.367l10.88,21.759v77.956l-17.917-36.707l0.203-9.285
	c0.048-2.208-1.703-4.038-3.912-4.086c-0.911-0.02-1.751,0.281-2.436,0.783l-9.995-20.477c-1.454-2.978-5.046-4.215-8.024-2.76
	c-2.978,1.454-4.214,5.046-2.76,8.024l44.84,91.867v31.49l-49.188-61.029c-2.08-2.58-5.857-2.986-8.437-0.906
	c-2.58,2.079-2.986,5.856-0.906,8.437l13.73,17.036l-5.92-1.177c-2.164-0.431-4.272,0.977-4.703,3.144
	c-0.431,2.167,0.977,4.272,3.144,4.703l15.308,3.043l36.972,45.872v74.188l-69.168-84.539c-2.098-2.564-5.879-2.942-8.443-0.844
	c-2.565,2.098-2.943,5.878-0.844,8.443l13.832,16.905l-7.725-2.323c-2.117-0.638-4.347,0.563-4.982,2.679
	c-0.636,2.116,0.563,4.346,2.679,4.982l19.094,5.742l55.558,67.904v54.718l-50.415-59.208l-2.806-20.366
	c-0.301-2.188-2.322-3.721-4.508-3.417c-2.188,0.301-3.718,2.32-3.417,4.508l1.097,7.96l-24.713-29.023
	c-2.148-2.523-5.935-2.826-8.458-0.679c-2.523,2.148-2.827,5.935-0.679,8.458l93.899,110.276v34.311l-61.757-61.757
	c-2.343-2.343-6.143-2.343-8.485,0c-2.343,2.343-2.343,6.142,0,8.485l70.243,70.243V476c0,3.313,2.687,6,6,6s6-2.687,6-6v-70.842
	l17.626-21.337c2.11-2.555,1.75-6.336-0.805-8.447c-2.555-2.11-6.336-1.749-8.447,0.805l-8.374,10.137v-12.504l58.94-78.113
	l15.699-7.049c2.015-0.905,2.915-3.272,2.01-5.288c-0.904-2.015-3.271-2.915-5.288-2.01l-2.414,1.084l21.847-28.954
	C341.453,250.836,340.927,247.074,338.281,245.078z"/>
</svg>